<svg width="640" height="425" viewBox="0 0 640 425" fill="none" xmlns="http://www.w3.org/2000/svg">
<rect width="640" height="425" fill="#FFCE50"/>
<g clip-path="url(#clip0_327_5210)">
<rect width="258" height="258" transform="translate(191 84)" fill="#DBB146"/>
<rect x="183" y="70" width="552" height="312" fill="url(#paint0_linear_327_5210)"/>
<circle cx="322" cy="201" r="66" fill="url(#paint1_linear_327_5210)"/>
<g clip-path="url(#clip1_327_5210)">
<g filter="url(#filter0_f_327_5210)">
<g filter="url(#filter1_b_327_5210)">
<rect x="215" y="228" width="213" height="4" fill="#C4C4C4" fill-opacity="0.01"/>
</g>
<g filter="url(#filter2_b_327_5210)">
<rect x="215" y="232" width="213" height="4" fill="#C4C4C4" fill-opacity="0.01"/>
</g>
<g filter="url(#filter3_b_327_5210)">
<rect x="215" y="236" width="213" height="4" fill="#C4C4C4" fill-opacity="0.01"/>
</g>
<g filter="url(#filter4_b_327_5210)">
<rect x="215" y="240" width="213" height="4" fill="#C4C4C4" fill-opacity="0.01"/>
</g>
<g filter="url(#filter5_b_327_5210)">
<rect x="215" y="244" width="213" height="4" fill="#C4C4C4" fill-opacity="0.01"/>
</g>
<g filter="url(#filter6_b_327_5210)">
<rect x="215" y="248" width="213" height="4" fill="#C4C4C4" fill-opacity="0.01"/>
</g>
<g filter="url(#filter7_b_327_5210)">
<rect x="215" y="252" width="213" height="4" fill="#C4C4C4" fill-opacity="0.01"/>
</g>
<g filter="url(#filter8_b_327_5210)">
<rect x="215" y="256" width="213" height="4" fill="#C4C4C4" fill-opacity="0.01"/>
</g>
<g filter="url(#filter9_b_327_5210)">
<rect x="215" y="260" width="213" height="4" fill="#C4C4C4" fill-opacity="0.01"/>
</g>
<g filter="url(#filter10_b_327_5210)">
<rect x="215" y="264" width="213" height="4" fill="#C4C4C4" fill-opacity="0.01"/>
</g>
<g filter="url(#filter11_b_327_5210)">
<rect x="215" y="268" width="213" height="4" fill="#C4C4C4" fill-opacity="0.01"/>
</g>
<g filter="url(#filter12_b_327_5210)">
<rect x="215" y="272" width="213" height="4" fill="#C4C4C4" fill-opacity="0.01"/>
</g>
<g filter="url(#filter13_b_327_5210)">
<rect x="215" y="276" width="213" height="4" fill="#C4C4C4" fill-opacity="0.01"/>
</g>
<g filter="url(#filter14_b_327_5210)">
<rect x="215" y="280" width="213" height="4" fill="#C4C4C4" fill-opacity="0.01"/>
</g>
<g filter="url(#filter15_b_327_5210)">
<rect x="215" y="284" width="213" height="4" fill="#C4C4C4" fill-opacity="0.01"/>
</g>
</g>
</g>
<path d="M279.631 313.119L280.437 310.445H281.252L280.014 314H279.25L278.017 310.445H278.83L279.631 313.119ZM290.91 313.268H289.626L289.382 314H288.603L289.926 310.445H290.605L291.936 314H291.157L290.91 313.268ZM289.824 312.674H290.712L290.266 311.344L289.824 312.674ZM300.5 313.412H302.055V314H299.768V310.445H300.5V313.412ZM312.116 312.459H310.71V313.412H312.36V314H309.978V310.445H312.355V311.039H310.71V311.886H312.116V312.459ZM323.181 314H322.448L321.022 311.661V314H320.29V310.445H321.022L322.451 312.789V310.445H323.181V314ZM333.923 311.039H332.834V314H332.102V311.039H331.027V310.445H333.923V311.039ZM342.622 314H341.889V310.445H342.622V314ZM353.693 314H352.961L351.535 311.661V314H350.803V310.445H351.535L352.963 312.789V310.445H353.693V314ZM363.972 312.459H362.565V313.412H364.216V314H361.833V310.445H364.211V311.039H362.565V311.886H363.972V312.459Z" fill="#DBB146"/>
<path d="M269.644 105.485H270.008L272.423 109.069C272.82 108.462 273.219 107.863 273.62 107.27C274.026 106.677 274.434 106.082 274.845 105.485H275.209V109.615H274.775V106.367L272.598 109.615H272.255L270.078 106.374V109.615H269.644V105.485ZM270.463 107.648L272.038 110.007H272.808L274.39 107.641V110.007H275.594V105.093H274.628L272.416 108.369L270.218 105.093H269.259V110.007H270.463V107.648ZM270.995 105.639L272.514 107.914L274.544 104.918H275.769L276.448 105.639V110.861H274.936L274.215 110.182V109.923L273.585 110.861H272.661L271.954 110.182L271.317 109.23V110.861H269.805L269.084 110.182V104.918H270.302L270.995 105.639ZM280.731 109.188C281.002 109.188 281.254 109.16 281.487 109.104C281.725 109.043 281.931 108.95 282.103 108.824C282.281 108.693 282.418 108.525 282.516 108.32C282.614 108.11 282.663 107.853 282.663 107.55C282.663 107.251 282.612 106.997 282.509 106.787C282.411 106.577 282.276 106.409 282.103 106.283C281.931 106.152 281.725 106.059 281.487 106.003C281.254 105.942 281.002 105.912 280.731 105.912H279.961C279.686 105.912 279.429 105.942 279.191 106.003C278.958 106.059 278.755 106.152 278.582 106.283C278.41 106.409 278.272 106.577 278.169 106.787C278.071 106.997 278.022 107.251 278.022 107.55C278.022 107.853 278.071 108.11 278.169 108.32C278.272 108.525 278.41 108.693 278.582 108.824C278.755 108.955 278.958 109.048 279.191 109.104C279.429 109.16 279.686 109.188 279.961 109.188H280.731ZM279.961 108.796C279.751 108.796 279.553 108.775 279.366 108.733C279.18 108.691 279.016 108.623 278.876 108.53C278.736 108.432 278.624 108.304 278.54 108.145C278.456 107.986 278.414 107.788 278.414 107.55C278.414 107.317 278.456 107.121 278.54 106.962C278.624 106.803 278.736 106.675 278.876 106.577C279.021 106.479 279.187 106.409 279.373 106.367C279.56 106.325 279.756 106.304 279.961 106.304H280.731C280.937 106.304 281.133 106.325 281.319 106.367C281.506 106.409 281.669 106.479 281.809 106.577C281.949 106.675 282.061 106.803 282.145 106.962C282.229 107.121 282.271 107.317 282.271 107.55C282.271 107.783 282.229 107.979 282.145 108.138C282.066 108.297 281.956 108.425 281.816 108.523C281.676 108.621 281.513 108.691 281.326 108.733C281.14 108.775 280.941 108.796 280.731 108.796H279.961ZM277.581 107.55C277.581 107.172 277.64 106.852 277.756 106.591C277.878 106.33 278.043 106.117 278.253 105.954C278.468 105.786 278.72 105.667 279.009 105.597C279.303 105.522 279.621 105.485 279.961 105.485H280.731C281.072 105.485 281.387 105.522 281.676 105.597C281.966 105.672 282.215 105.791 282.425 105.954C282.64 106.117 282.806 106.33 282.922 106.591C283.044 106.852 283.104 107.172 283.104 107.55C283.104 107.928 283.044 108.248 282.922 108.509C282.806 108.77 282.64 108.983 282.425 109.146C282.215 109.309 281.966 109.428 281.676 109.503C281.387 109.578 281.072 109.615 280.731 109.615H279.961C279.621 109.615 279.303 109.58 279.009 109.51C278.72 109.435 278.468 109.316 278.253 109.153C278.043 108.985 277.878 108.77 277.756 108.509C277.64 108.248 277.581 107.928 277.581 107.55ZM277.189 107.55C277.189 107.993 277.257 108.371 277.392 108.684C277.532 108.992 277.724 109.244 277.966 109.44C278.214 109.636 278.505 109.781 278.841 109.874C279.182 109.963 279.555 110.007 279.961 110.007H280.731C281.137 110.007 281.508 109.963 281.844 109.874C282.18 109.781 282.47 109.636 282.712 109.44C282.96 109.244 283.151 108.992 283.286 108.684C283.422 108.371 283.489 107.993 283.489 107.55C283.489 107.107 283.422 106.731 283.286 106.423C283.151 106.11 282.96 105.856 282.712 105.66C282.47 105.464 282.18 105.322 281.844 105.233C281.508 105.14 281.137 105.093 280.731 105.093H279.961C279.555 105.093 279.182 105.14 278.841 105.233C278.505 105.322 278.214 105.464 277.966 105.66C277.724 105.856 277.532 106.11 277.392 106.423C277.257 106.731 277.189 107.107 277.189 107.55ZM277.014 107.55C277.014 107.074 277.087 106.67 277.231 106.339C277.376 106.003 277.579 105.73 277.84 105.52C278.102 105.31 278.412 105.158 278.771 105.065C279.135 104.967 279.532 104.918 279.961 104.918H280.731C281.002 104.918 281.256 104.934 281.494 104.967C281.737 104.995 281.975 105.058 282.208 105.156C282.442 105.249 282.673 105.385 282.901 105.562C283.135 105.735 283.375 105.968 283.622 106.262C283.832 106.472 284.005 106.75 284.14 107.095C284.276 107.44 284.343 107.825 284.343 108.25C284.343 108.721 284.271 109.123 284.126 109.454C283.986 109.785 283.786 110.054 283.524 110.259C283.268 110.469 282.96 110.621 282.6 110.714C282.246 110.812 281.856 110.861 281.431 110.861H280.661C280.185 110.861 279.742 110.807 279.331 110.7C278.921 110.593 278.582 110.408 278.316 110.147C278.05 109.914 277.833 109.694 277.665 109.489C277.497 109.279 277.364 109.071 277.266 108.866C277.173 108.661 277.108 108.451 277.07 108.236C277.033 108.021 277.014 107.793 277.014 107.55ZM280.731 108.621C280.913 108.621 281.086 108.605 281.249 108.572C281.417 108.535 281.564 108.474 281.69 108.39C281.816 108.306 281.914 108.196 281.984 108.061C282.059 107.921 282.096 107.751 282.096 107.55C282.096 107.438 282.082 107.335 282.054 107.242C281.863 107.186 281.655 107.158 281.431 107.158H280.661C280.475 107.158 280.297 107.177 280.129 107.214C279.961 107.251 279.812 107.312 279.681 107.396C279.555 107.48 279.455 107.592 279.38 107.732C279.306 107.872 279.268 108.045 279.268 108.25C279.268 108.362 279.278 108.455 279.296 108.53C279.394 108.563 279.499 108.586 279.611 108.6C279.723 108.614 279.84 108.621 279.961 108.621H280.731ZM288.837 106.304C288.893 106.304 288.952 106.309 289.012 106.318C289.073 106.327 289.129 106.344 289.18 106.367C289.232 106.39 289.274 106.423 289.306 106.465C289.344 106.507 289.362 106.563 289.362 106.633C289.362 106.698 289.344 106.752 289.306 106.794C289.269 106.836 289.222 106.869 289.166 106.892C289.115 106.915 289.057 106.932 288.991 106.941C288.931 106.95 288.877 106.955 288.83 106.955H286.24V106.304H288.837ZM288.83 107.34C288.942 107.34 289.052 107.328 289.159 107.305C289.271 107.277 289.372 107.235 289.46 107.179C289.549 107.123 289.619 107.051 289.67 106.962C289.726 106.869 289.754 106.759 289.754 106.633C289.754 106.502 289.729 106.39 289.677 106.297C289.626 106.204 289.556 106.129 289.467 106.073C289.383 106.017 289.285 105.977 289.173 105.954C289.066 105.926 288.954 105.912 288.837 105.912H285.855V107.34H288.83ZM289.467 107.655C289.402 107.692 289.33 107.72 289.25 107.739C289.171 107.758 289.096 107.776 289.026 107.795C289.288 108.103 289.549 108.406 289.81 108.705C290.076 109.004 290.342 109.307 290.608 109.615H290.041L288.424 107.76H285.855V109.615H285.421V105.485H288.837C289.029 105.485 289.206 105.506 289.369 105.548C289.537 105.59 289.68 105.658 289.796 105.751C289.918 105.844 290.011 105.963 290.076 106.108C290.146 106.253 290.181 106.428 290.181 106.633C290.181 106.89 290.123 107.102 290.006 107.27C289.89 107.433 289.712 107.562 289.474 107.655H289.467ZM290.573 106.633C290.573 106.367 290.531 106.138 290.447 105.947C290.363 105.751 290.244 105.59 290.09 105.464C289.936 105.338 289.752 105.245 289.537 105.184C289.327 105.123 289.094 105.093 288.837 105.093H285.043V110.007H286.24V108.145H288.242L289.852 110.007H291.462L289.698 107.984C290.282 107.727 290.573 107.277 290.573 106.633ZM284.868 110.182V104.918H288.837C289.019 104.918 289.194 104.932 289.362 104.96C289.53 104.983 289.698 105.035 289.866 105.114C290.039 105.193 290.216 105.308 290.398 105.457C290.585 105.606 290.783 105.805 290.993 106.052C291.129 106.187 291.234 106.369 291.308 106.598C291.388 106.822 291.427 107.067 291.427 107.333C291.427 107.641 291.36 107.914 291.224 108.152C291.094 108.39 290.902 108.584 290.65 108.733C290.795 108.901 290.947 109.076 291.105 109.258C291.264 109.44 291.423 109.624 291.581 109.811C291.74 109.993 291.896 110.173 292.05 110.35C292.209 110.532 292.358 110.702 292.498 110.861H290.482L289.775 110.182L288.753 108.999H287.094V110.861H285.589L284.868 110.182ZM293.844 106.15V109.615H293.431V105.485H293.788L297.547 108.95V105.485H297.967V109.615H297.617L293.844 106.15ZM298.359 105.093H297.162V108.068L293.921 105.093H293.039V110.007H294.236V107.025L297.484 110.007H298.359V105.093ZM292.864 110.182V104.918H293.984L296.987 107.669V104.918H298.534L299.213 105.639V110.861H298.121L295.09 108.082V110.861H293.585L292.864 110.182ZM300.642 105.485H301.062V109.615H300.642V105.485ZM301.447 105.093H300.257V110.007H301.447V105.093ZM300.082 110.182V104.918H301.622L302.301 105.639V110.861H300.803L300.082 110.182ZM304.392 106.15V109.615H303.979V105.485H304.336L308.095 108.95V105.485H308.515V109.615H308.165L304.392 106.15ZM308.907 105.093H307.71V108.068L304.469 105.093H303.587V110.007H304.784V107.025L308.032 110.007H308.907V105.093ZM303.412 110.182V104.918H304.532L307.535 107.669V104.918H309.082L309.761 105.639V110.861H308.669L305.638 108.082V110.861H304.133L303.412 110.182ZM315.663 106.332C315.453 106.173 315.217 106.064 314.956 106.003C314.699 105.942 314.44 105.912 314.179 105.912H313.416C313.145 105.912 312.891 105.942 312.653 106.003C312.419 106.059 312.216 106.152 312.044 106.283C311.871 106.409 311.733 106.577 311.631 106.787C311.533 106.997 311.484 107.251 311.484 107.55C311.484 107.853 311.533 108.11 311.631 108.32C311.729 108.525 311.864 108.693 312.037 108.824C312.214 108.95 312.419 109.043 312.653 109.104C312.886 109.16 313.14 109.188 313.416 109.188H314.179C314.421 109.188 314.652 109.162 314.872 109.111C315.096 109.055 315.296 108.971 315.474 108.859C315.651 108.742 315.803 108.595 315.929 108.418C316.055 108.236 316.146 108.017 316.202 107.76H314.27V107.34H316.692V107.55C316.692 107.937 316.624 108.264 316.489 108.53C316.353 108.791 316.171 109.004 315.943 109.167C315.714 109.326 315.448 109.44 315.145 109.51C314.841 109.58 314.519 109.615 314.179 109.615H313.416C313.075 109.615 312.76 109.578 312.471 109.503C312.181 109.428 311.929 109.309 311.715 109.146C311.505 108.983 311.339 108.77 311.218 108.509C311.096 108.248 311.036 107.928 311.036 107.55C311.036 107.172 311.096 106.852 311.218 106.591C311.339 106.33 311.505 106.117 311.715 105.954C311.929 105.791 312.181 105.672 312.471 105.597C312.76 105.522 313.075 105.485 313.416 105.485H314.179C314.351 105.485 314.524 105.492 314.697 105.506C314.869 105.515 315.037 105.539 315.201 105.576C315.364 105.613 315.523 105.667 315.677 105.737C315.835 105.802 315.982 105.893 316.118 106.01L315.663 106.332ZM316.713 106.108C316.549 105.893 316.372 105.721 316.181 105.59C315.989 105.459 315.786 105.357 315.572 105.282C315.362 105.207 315.14 105.158 314.907 105.135C314.673 105.107 314.431 105.093 314.179 105.093H313.416C313.01 105.093 312.639 105.14 312.303 105.233C311.967 105.322 311.675 105.464 311.428 105.66C311.185 105.856 310.996 106.11 310.861 106.423C310.725 106.731 310.658 107.107 310.658 107.55C310.658 107.993 310.725 108.371 310.861 108.684C310.996 108.992 311.185 109.244 311.428 109.44C311.675 109.636 311.967 109.781 312.303 109.874C312.639 109.963 313.01 110.007 313.416 110.007H314.179C314.58 110.007 314.956 109.965 315.306 109.881C315.66 109.792 315.968 109.652 316.23 109.461C316.491 109.265 316.696 109.011 316.846 108.698C317 108.385 317.077 108.003 317.077 107.55V106.955H313.878V108.145H315.698C315.623 108.271 315.527 108.376 315.411 108.46C315.294 108.544 315.166 108.612 315.026 108.663C314.89 108.71 314.748 108.745 314.599 108.768C314.454 108.787 314.314 108.796 314.179 108.796H313.416C313.206 108.796 313.007 108.775 312.821 108.733C312.634 108.691 312.471 108.623 312.331 108.53C312.191 108.432 312.079 108.304 311.995 108.145C311.911 107.986 311.869 107.788 311.869 107.55C311.869 107.317 311.911 107.121 311.995 106.962C312.079 106.803 312.191 106.675 312.331 106.577C312.475 106.479 312.641 106.409 312.828 106.367C313.014 106.325 313.21 106.304 313.416 106.304H314.179C314.454 106.304 314.718 106.348 314.97 106.437C315.222 106.521 315.446 106.666 315.642 106.871L316.713 106.108ZM311.778 110.112C311.516 109.888 311.302 109.676 311.134 109.475C310.966 109.274 310.833 109.074 310.735 108.873C310.641 108.668 310.576 108.46 310.539 108.25C310.501 108.035 310.483 107.802 310.483 107.55C310.483 107.074 310.555 106.67 310.7 106.339C310.844 106.003 311.045 105.73 311.302 105.52C311.563 105.31 311.873 105.158 312.233 105.065C312.592 104.967 312.986 104.918 313.416 104.918H314.179C314.435 104.918 314.683 104.93 314.921 104.953C315.159 104.976 315.39 105.025 315.614 105.1C315.838 105.17 316.052 105.277 316.258 105.422C316.468 105.562 316.671 105.751 316.867 105.989C317.007 106.129 317.121 106.246 317.21 106.339C317.298 106.432 317.368 106.512 317.42 106.577C317.476 106.642 317.518 106.696 317.546 106.738C317.578 106.775 317.606 106.81 317.63 106.843L317.42 106.99L317.931 107.501V108.25C317.931 108.731 317.851 109.137 317.693 109.468C317.534 109.799 317.317 110.068 317.042 110.273C316.766 110.483 316.442 110.632 316.069 110.721C315.7 110.814 315.303 110.861 314.879 110.861H314.116C313.64 110.861 313.196 110.8 312.786 110.679C312.375 110.562 312.039 110.373 311.778 110.112ZM313.703 107.2C313.563 107.223 313.432 107.261 313.311 107.312C313.194 107.359 313.091 107.424 313.003 107.508C312.914 107.592 312.844 107.697 312.793 107.823C312.746 107.944 312.723 108.087 312.723 108.25C312.723 108.362 312.732 108.455 312.751 108.53C312.849 108.563 312.954 108.586 313.066 108.6C313.178 108.614 313.294 108.621 313.416 108.621H314.046L313.703 108.32V107.2ZM327.248 106.304C327.304 106.304 327.363 106.309 327.423 106.318C327.484 106.327 327.54 106.344 327.591 106.367C327.643 106.39 327.685 106.423 327.717 106.465C327.755 106.507 327.773 106.563 327.773 106.633C327.773 106.698 327.755 106.752 327.717 106.794C327.68 106.836 327.633 106.869 327.577 106.892C327.526 106.915 327.468 106.932 327.402 106.941C327.342 106.95 327.288 106.955 327.241 106.955H324.651V106.304H327.248ZM327.241 107.34C327.353 107.34 327.463 107.328 327.57 107.305C327.682 107.277 327.783 107.235 327.871 107.179C327.96 107.123 328.03 107.051 328.081 106.962C328.137 106.869 328.165 106.759 328.165 106.633C328.165 106.502 328.14 106.39 328.088 106.297C328.037 106.204 327.967 106.129 327.878 106.073C327.794 106.017 327.696 105.977 327.584 105.954C327.477 105.926 327.365 105.912 327.248 105.912H324.266V107.34H327.241ZM327.878 107.655C327.813 107.692 327.741 107.72 327.661 107.739C327.582 107.758 327.507 107.776 327.437 107.795C327.699 108.103 327.96 108.406 328.221 108.705C328.487 109.004 328.753 109.307 329.019 109.615H328.452L326.835 107.76H324.266V109.615H323.832V105.485H327.248C327.44 105.485 327.617 105.506 327.78 105.548C327.948 105.59 328.091 105.658 328.207 105.751C328.329 105.844 328.422 105.963 328.487 106.108C328.557 106.253 328.592 106.428 328.592 106.633C328.592 106.89 328.534 107.102 328.417 107.27C328.301 107.433 328.123 107.562 327.885 107.655H327.878ZM328.984 106.633C328.984 106.367 328.942 106.138 328.858 105.947C328.774 105.751 328.655 105.59 328.501 105.464C328.347 105.338 328.163 105.245 327.948 105.184C327.738 105.123 327.505 105.093 327.248 105.093H323.454V110.007H324.651V108.145H326.653L328.263 110.007H329.873L328.109 107.984C328.693 107.727 328.984 107.277 328.984 106.633ZM323.279 110.182V104.918H327.248C327.43 104.918 327.605 104.932 327.773 104.96C327.941 104.983 328.109 105.035 328.277 105.114C328.45 105.193 328.627 105.308 328.809 105.457C328.996 105.606 329.194 105.805 329.404 106.052C329.54 106.187 329.645 106.369 329.719 106.598C329.799 106.822 329.838 107.067 329.838 107.333C329.838 107.641 329.771 107.914 329.635 108.152C329.505 108.39 329.313 108.584 329.061 108.733C329.206 108.901 329.358 109.076 329.516 109.258C329.675 109.44 329.834 109.624 329.992 109.811C330.151 109.993 330.307 110.173 330.461 110.35C330.62 110.532 330.769 110.702 330.909 110.861H328.893L328.186 110.182L327.164 108.999H325.505V110.861H324L323.279 110.182ZM334.551 109.188C334.821 109.188 335.073 109.16 335.307 109.104C335.545 109.043 335.75 108.95 335.923 108.824C336.1 108.693 336.238 108.525 336.336 108.32C336.434 108.11 336.483 107.853 336.483 107.55C336.483 107.251 336.431 106.997 336.329 106.787C336.231 106.577 336.095 106.409 335.923 106.283C335.75 106.152 335.545 106.059 335.307 106.003C335.073 105.942 334.821 105.912 334.551 105.912H333.781C333.505 105.912 333.249 105.942 333.011 106.003C332.777 106.059 332.574 106.152 332.402 106.283C332.229 106.409 332.091 106.577 331.989 106.787C331.891 106.997 331.842 107.251 331.842 107.55C331.842 107.853 331.891 108.11 331.989 108.32C332.091 108.525 332.229 108.693 332.402 108.824C332.574 108.955 332.777 109.048 333.011 109.104C333.249 109.16 333.505 109.188 333.781 109.188H334.551ZM333.781 108.796C333.571 108.796 333.372 108.775 333.186 108.733C332.999 108.691 332.836 108.623 332.696 108.53C332.556 108.432 332.444 108.304 332.36 108.145C332.276 107.986 332.234 107.788 332.234 107.55C332.234 107.317 332.276 107.121 332.36 106.962C332.444 106.803 332.556 106.675 332.696 106.577C332.84 106.479 333.006 106.409 333.193 106.367C333.379 106.325 333.575 106.304 333.781 106.304H334.551C334.756 106.304 334.952 106.325 335.139 106.367C335.325 106.409 335.489 106.479 335.629 106.577C335.769 106.675 335.881 106.803 335.965 106.962C336.049 107.121 336.091 107.317 336.091 107.55C336.091 107.783 336.049 107.979 335.965 108.138C335.885 108.297 335.776 108.425 335.636 108.523C335.496 108.621 335.332 108.691 335.146 108.733C334.959 108.775 334.761 108.796 334.551 108.796H333.781ZM331.401 107.55C331.401 107.172 331.459 106.852 331.576 106.591C331.697 106.33 331.863 106.117 332.073 105.954C332.287 105.786 332.539 105.667 332.829 105.597C333.123 105.522 333.44 105.485 333.781 105.485H334.551C334.891 105.485 335.206 105.522 335.496 105.597C335.785 105.672 336.035 105.791 336.245 105.954C336.459 106.117 336.625 106.33 336.742 106.591C336.863 106.852 336.924 107.172 336.924 107.55C336.924 107.928 336.863 108.248 336.742 108.509C336.625 108.77 336.459 108.983 336.245 109.146C336.035 109.309 335.785 109.428 335.496 109.503C335.206 109.578 334.891 109.615 334.551 109.615H333.781C333.44 109.615 333.123 109.58 332.829 109.51C332.539 109.435 332.287 109.316 332.073 109.153C331.863 108.985 331.697 108.77 331.576 108.509C331.459 108.248 331.401 107.928 331.401 107.55ZM331.009 107.55C331.009 107.993 331.076 108.371 331.212 108.684C331.352 108.992 331.543 109.244 331.786 109.44C332.033 109.636 332.325 109.781 332.661 109.874C333.001 109.963 333.375 110.007 333.781 110.007H334.551C334.957 110.007 335.328 109.963 335.664 109.874C336 109.781 336.289 109.636 336.532 109.44C336.779 109.244 336.97 108.992 337.106 108.684C337.241 108.371 337.309 107.993 337.309 107.55C337.309 107.107 337.241 106.731 337.106 106.423C336.97 106.11 336.779 105.856 336.532 105.66C336.289 105.464 336 105.322 335.664 105.233C335.328 105.14 334.957 105.093 334.551 105.093H333.781C333.375 105.093 333.001 105.14 332.661 105.233C332.325 105.322 332.033 105.464 331.786 105.66C331.543 105.856 331.352 106.11 331.212 106.423C331.076 106.731 331.009 107.107 331.009 107.55ZM330.834 107.55C330.834 107.074 330.906 106.67 331.051 106.339C331.195 106.003 331.398 105.73 331.66 105.52C331.921 105.31 332.231 105.158 332.591 105.065C332.955 104.967 333.351 104.918 333.781 104.918H334.551C334.821 104.918 335.076 104.934 335.314 104.967C335.556 104.995 335.794 105.058 336.028 105.156C336.261 105.249 336.492 105.385 336.721 105.562C336.954 105.735 337.194 105.968 337.442 106.262C337.652 106.472 337.824 106.75 337.96 107.095C338.095 107.44 338.163 107.825 338.163 108.25C338.163 108.721 338.09 109.123 337.946 109.454C337.806 109.785 337.605 110.054 337.344 110.259C337.087 110.469 336.779 110.621 336.42 110.714C336.065 110.812 335.675 110.861 335.251 110.861H334.481C334.005 110.861 333.561 110.807 333.151 110.7C332.74 110.593 332.402 110.408 332.136 110.147C331.87 109.914 331.653 109.694 331.485 109.489C331.317 109.279 331.184 109.071 331.086 108.866C330.992 108.661 330.927 108.451 330.89 108.236C330.852 108.021 330.834 107.793 330.834 107.55ZM334.551 108.621C334.733 108.621 334.905 108.605 335.069 108.572C335.237 108.535 335.384 108.474 335.51 108.39C335.636 108.306 335.734 108.196 335.804 108.061C335.878 107.921 335.916 107.751 335.916 107.55C335.916 107.438 335.902 107.335 335.874 107.242C335.682 107.186 335.475 107.158 335.251 107.158H334.481C334.294 107.158 334.117 107.177 333.949 107.214C333.781 107.251 333.631 107.312 333.501 107.396C333.375 107.48 333.274 107.592 333.2 107.732C333.125 107.872 333.088 108.045 333.088 108.25C333.088 108.362 333.097 108.455 333.116 108.53C333.214 108.563 333.319 108.586 333.431 108.6C333.543 108.614 333.659 108.621 333.781 108.621H334.551ZM339.703 105.485V107.55C339.703 107.853 339.752 108.11 339.85 108.32C339.948 108.525 340.083 108.693 340.256 108.824C340.433 108.95 340.638 109.043 340.872 109.104C341.105 109.16 341.359 109.188 341.635 109.188H342.405C342.675 109.188 342.927 109.16 343.161 109.104C343.399 109.043 343.604 108.95 343.777 108.824C343.954 108.693 344.092 108.525 344.19 108.32C344.292 108.11 344.344 107.853 344.344 107.55V105.485H344.785V107.55C344.785 107.928 344.724 108.248 344.603 108.509C344.481 108.77 344.313 108.985 344.099 109.153C343.889 109.316 343.639 109.435 343.35 109.51C343.06 109.58 342.745 109.615 342.405 109.615H341.635C341.294 109.615 340.977 109.58 340.683 109.51C340.393 109.435 340.141 109.316 339.927 109.153C339.717 108.985 339.551 108.77 339.43 108.509C339.313 108.248 339.255 107.928 339.255 107.55V105.485H339.703ZM338.87 107.55C338.87 107.993 338.937 108.371 339.073 108.684C339.208 108.992 339.397 109.244 339.64 109.44C339.887 109.636 340.179 109.781 340.515 109.874C340.855 109.963 341.229 110.007 341.635 110.007H342.405C342.811 110.007 343.182 109.963 343.518 109.874C343.858 109.781 344.15 109.636 344.393 109.44C344.64 109.244 344.831 108.992 344.967 108.684C345.102 108.371 345.17 107.993 345.17 107.55V105.093H343.952V107.55C343.952 107.788 343.91 107.986 343.826 108.145C343.742 108.304 343.63 108.432 343.49 108.53C343.35 108.623 343.186 108.691 343 108.733C342.813 108.775 342.615 108.796 342.405 108.796H341.635C341.425 108.796 341.226 108.775 341.04 108.733C340.853 108.691 340.69 108.621 340.55 108.523C340.41 108.425 340.298 108.297 340.214 108.138C340.134 107.979 340.095 107.783 340.095 107.55V105.093H338.87V107.55ZM338.695 104.918H340.27L340.949 105.639V108.25C340.949 108.301 340.949 108.35 340.949 108.397C340.953 108.444 340.96 108.488 340.97 108.53C341.166 108.591 341.387 108.621 341.635 108.621H342.405C342.587 108.621 342.759 108.605 342.923 108.572C343.091 108.535 343.238 108.474 343.364 108.39C343.49 108.306 343.59 108.196 343.665 108.061C343.739 107.926 343.777 107.755 343.777 107.55V104.918H345.345L346.024 105.639V108.25C346.024 108.721 345.951 109.123 345.807 109.454C345.662 109.785 345.461 110.054 345.205 110.259C344.948 110.469 344.64 110.621 344.281 110.714C343.921 110.812 343.529 110.861 343.105 110.861H342.335C342.097 110.861 341.866 110.849 341.642 110.826C341.422 110.803 341.212 110.763 341.012 110.707C340.816 110.656 340.634 110.586 340.466 110.497C340.298 110.408 340.148 110.299 340.018 110.168C339.752 109.939 339.532 109.722 339.36 109.517C339.192 109.307 339.059 109.097 338.961 108.887C338.863 108.677 338.793 108.465 338.751 108.25C338.713 108.031 338.695 107.797 338.695 107.55V104.918ZM349.576 105.912H347.231V105.485H352.348V105.912H349.996V109.615H349.576V105.912ZM350.381 106.304H352.733V105.093H346.846V106.304H349.191V110.007H350.381V106.304ZM346.671 106.479V104.918H352.908L353.587 105.639V107.158H351.235V110.861H349.737L349.016 110.182V107.158H347.392L346.671 106.479ZM354.755 105.485H355.175V109.615H354.755V105.485ZM355.56 105.093H354.37V110.007H355.56V105.093ZM354.195 110.182V104.918H355.735L356.414 105.639V110.861H354.916L354.195 110.182ZM358.505 106.15V109.615H358.092V105.485H358.449L362.208 108.95V105.485H362.628V109.615H362.278L358.505 106.15ZM363.02 105.093H361.823V108.068L358.582 105.093H357.7V110.007H358.897V107.025L362.145 110.007H363.02V105.093ZM357.525 110.182V104.918H358.645L361.648 107.669V104.918H363.195L363.874 105.639V110.861H362.782L359.751 108.082V110.861H358.246L357.525 110.182ZM369.199 107.34V107.76H365.636V109.188H369.927V109.615H365.202V105.485H369.92V105.912H365.636V107.34H369.199ZM370.312 106.304V105.093H364.81V110.007H370.319V108.796H366.021V108.145H369.584V106.955H366.021V106.304H370.312ZM364.635 110.182V104.918H370.487L371.166 105.639V107.158H370.095L370.438 107.501V108.621L371.173 109.342V110.861H365.356L364.635 110.182Z" fill="#756565"/>
</g>
<defs>
<filter id="filter0_f_327_5210" x="211" y="220" width="221" height="72" filterUnits="userSpaceOnUse" color-interpolation-filters="sRGB">
<feFlood flood-opacity="0" result="BackgroundImageFix"/>
<feBlend mode="normal" in="SourceGraphic" in2="BackgroundImageFix" result="shape"/>
<feGaussianBlur stdDeviation="2" result="effect1_foregroundBlur_327_5210"/>
</filter>
<filter id="filter1_b_327_5210" x="155" y="168" width="333" height="124" filterUnits="userSpaceOnUse" color-interpolation-filters="sRGB">
<feFlood flood-opacity="0" result="BackgroundImageFix"/>
<feGaussianBlur in="BackgroundImage" stdDeviation="30"/>
<feComposite in2="SourceAlpha" operator="in" result="effect1_backgroundBlur_327_5210"/>
<feBlend mode="normal" in="SourceGraphic" in2="effect1_backgroundBlur_327_5210" result="shape"/>
</filter>
<filter id="filter2_b_327_5210" x="159" y="176" width="325" height="116" filterUnits="userSpaceOnUse" color-interpolation-filters="sRGB">
<feFlood flood-opacity="0" result="BackgroundImageFix"/>
<feGaussianBlur in="BackgroundImage" stdDeviation="28"/>
<feComposite in2="SourceAlpha" operator="in" result="effect1_backgroundBlur_327_5210"/>
<feBlend mode="normal" in="SourceGraphic" in2="effect1_backgroundBlur_327_5210" result="shape"/>
</filter>
<filter id="filter3_b_327_5210" x="163" y="184" width="317" height="108" filterUnits="userSpaceOnUse" color-interpolation-filters="sRGB">
<feFlood flood-opacity="0" result="BackgroundImageFix"/>
<feGaussianBlur in="BackgroundImage" stdDeviation="26"/>
<feComposite in2="SourceAlpha" operator="in" result="effect1_backgroundBlur_327_5210"/>
<feBlend mode="normal" in="SourceGraphic" in2="effect1_backgroundBlur_327_5210" result="shape"/>
</filter>
<filter id="filter4_b_327_5210" x="167" y="192" width="309" height="100" filterUnits="userSpaceOnUse" color-interpolation-filters="sRGB">
<feFlood flood-opacity="0" result="BackgroundImageFix"/>
<feGaussianBlur in="BackgroundImage" stdDeviation="24"/>
<feComposite in2="SourceAlpha" operator="in" result="effect1_backgroundBlur_327_5210"/>
<feBlend mode="normal" in="SourceGraphic" in2="effect1_backgroundBlur_327_5210" result="shape"/>
</filter>
<filter id="filter5_b_327_5210" x="171" y="200" width="301" height="92" filterUnits="userSpaceOnUse" color-interpolation-filters="sRGB">
<feFlood flood-opacity="0" result="BackgroundImageFix"/>
<feGaussianBlur in="BackgroundImage" stdDeviation="22"/>
<feComposite in2="SourceAlpha" operator="in" result="effect1_backgroundBlur_327_5210"/>
<feBlend mode="normal" in="SourceGraphic" in2="effect1_backgroundBlur_327_5210" result="shape"/>
</filter>
<filter id="filter6_b_327_5210" x="175" y="208" width="293" height="84" filterUnits="userSpaceOnUse" color-interpolation-filters="sRGB">
<feFlood flood-opacity="0" result="BackgroundImageFix"/>
<feGaussianBlur in="BackgroundImage" stdDeviation="20"/>
<feComposite in2="SourceAlpha" operator="in" result="effect1_backgroundBlur_327_5210"/>
<feBlend mode="normal" in="SourceGraphic" in2="effect1_backgroundBlur_327_5210" result="shape"/>
</filter>
<filter id="filter7_b_327_5210" x="179" y="216" width="285" height="76" filterUnits="userSpaceOnUse" color-interpolation-filters="sRGB">
<feFlood flood-opacity="0" result="BackgroundImageFix"/>
<feGaussianBlur in="BackgroundImage" stdDeviation="18"/>
<feComposite in2="SourceAlpha" operator="in" result="effect1_backgroundBlur_327_5210"/>
<feBlend mode="normal" in="SourceGraphic" in2="effect1_backgroundBlur_327_5210" result="shape"/>
</filter>
<filter id="filter8_b_327_5210" x="183" y="224" width="277" height="68" filterUnits="userSpaceOnUse" color-interpolation-filters="sRGB">
<feFlood flood-opacity="0" result="BackgroundImageFix"/>
<feGaussianBlur in="BackgroundImage" stdDeviation="16"/>
<feComposite in2="SourceAlpha" operator="in" result="effect1_backgroundBlur_327_5210"/>
<feBlend mode="normal" in="SourceGraphic" in2="effect1_backgroundBlur_327_5210" result="shape"/>
</filter>
<filter id="filter9_b_327_5210" x="187" y="232" width="269" height="60" filterUnits="userSpaceOnUse" color-interpolation-filters="sRGB">
<feFlood flood-opacity="0" result="BackgroundImageFix"/>
<feGaussianBlur in="BackgroundImage" stdDeviation="14"/>
<feComposite in2="SourceAlpha" operator="in" result="effect1_backgroundBlur_327_5210"/>
<feBlend mode="normal" in="SourceGraphic" in2="effect1_backgroundBlur_327_5210" result="shape"/>
</filter>
<filter id="filter10_b_327_5210" x="191" y="240" width="261" height="52" filterUnits="userSpaceOnUse" color-interpolation-filters="sRGB">
<feFlood flood-opacity="0" result="BackgroundImageFix"/>
<feGaussianBlur in="BackgroundImage" stdDeviation="12"/>
<feComposite in2="SourceAlpha" operator="in" result="effect1_backgroundBlur_327_5210"/>
<feBlend mode="normal" in="SourceGraphic" in2="effect1_backgroundBlur_327_5210" result="shape"/>
</filter>
<filter id="filter11_b_327_5210" x="195" y="248" width="253" height="44" filterUnits="userSpaceOnUse" color-interpolation-filters="sRGB">
<feFlood flood-opacity="0" result="BackgroundImageFix"/>
<feGaussianBlur in="BackgroundImage" stdDeviation="10"/>
<feComposite in2="SourceAlpha" operator="in" result="effect1_backgroundBlur_327_5210"/>
<feBlend mode="normal" in="SourceGraphic" in2="effect1_backgroundBlur_327_5210" result="shape"/>
</filter>
<filter id="filter12_b_327_5210" x="199" y="256" width="245" height="36" filterUnits="userSpaceOnUse" color-interpolation-filters="sRGB">
<feFlood flood-opacity="0" result="BackgroundImageFix"/>
<feGaussianBlur in="BackgroundImage" stdDeviation="8"/>
<feComposite in2="SourceAlpha" operator="in" result="effect1_backgroundBlur_327_5210"/>
<feBlend mode="normal" in="SourceGraphic" in2="effect1_backgroundBlur_327_5210" result="shape"/>
</filter>
<filter id="filter13_b_327_5210" x="203" y="264" width="237" height="28" filterUnits="userSpaceOnUse" color-interpolation-filters="sRGB">
<feFlood flood-opacity="0" result="BackgroundImageFix"/>
<feGaussianBlur in="BackgroundImage" stdDeviation="6"/>
<feComposite in2="SourceAlpha" operator="in" result="effect1_backgroundBlur_327_5210"/>
<feBlend mode="normal" in="SourceGraphic" in2="effect1_backgroundBlur_327_5210" result="shape"/>
</filter>
<filter id="filter14_b_327_5210" x="207" y="272" width="229" height="20" filterUnits="userSpaceOnUse" color-interpolation-filters="sRGB">
<feFlood flood-opacity="0" result="BackgroundImageFix"/>
<feGaussianBlur in="BackgroundImage" stdDeviation="4"/>
<feComposite in2="SourceAlpha" operator="in" result="effect1_backgroundBlur_327_5210"/>
<feBlend mode="normal" in="SourceGraphic" in2="effect1_backgroundBlur_327_5210" result="shape"/>
</filter>
<filter id="filter15_b_327_5210" x="211" y="280" width="221" height="12" filterUnits="userSpaceOnUse" color-interpolation-filters="sRGB">
<feFlood flood-opacity="0" result="BackgroundImageFix"/>
<feGaussianBlur in="BackgroundImage" stdDeviation="2"/>
<feComposite in2="SourceAlpha" operator="in" result="effect1_backgroundBlur_327_5210"/>
<feBlend mode="normal" in="SourceGraphic" in2="effect1_backgroundBlur_327_5210" result="shape"/>
</filter>
<linearGradient id="paint0_linear_327_5210" x1="451.5" y1="80.5" x2="459" y2="382" gradientUnits="userSpaceOnUse">
<stop offset="0.171875" stop-color="#FFCE50"/>
<stop offset="0.46875" stop-color="#FF5F3C"/>
<stop offset="0.8125" stop-color="#3A150D"/>
</linearGradient>
<linearGradient id="paint1_linear_327_5210" x1="322" y1="135" x2="322" y2="267" gradientUnits="userSpaceOnUse">
<stop stop-color="#FF9385"/>
<stop offset="1" stop-color="#FFBF85" stop-opacity="0.43"/>
</linearGradient>
<clipPath id="clip0_327_5210">
<rect width="258" height="258" fill="white" transform="translate(191 84)"/>
</clipPath>
<clipPath id="clip1_327_5210">
<rect width="213" height="85" fill="white" transform="translate(215 228)"/>
</clipPath>
</defs>
</svg>
